<?xml version="1.0" encoding="UTF-8"?>
<!DOCTYPE svg PUBLIC "-//W3C//DTD SVG 1.1//EN" "http://www.w3.org/Graphics/SVG/1.1/DTD/svg11.dtd">
<!-- Creator: CorelDRAW -->
<svg xmlns="http://www.w3.org/2000/svg" xml:space="preserve" width="210mm" height="297mm" version="1.1" style="shape-rendering:geometricPrecision; text-rendering:geometricPrecision; image-rendering:optimizeQuality; fill-rule:evenodd; clip-rule:evenodd"
viewBox="0 0 21000 29700"
 xmlns:xlink="http://www.w3.org/1999/xlink"
 xmlns:xodm="http://www.corel.com/coreldraw/odm/2003">
 <defs>
  <style type="text/css">
   <![CDATA[
    .fil0 {fill:#00A1DE}
   ]]>
  </style>
 </defs>
 <g id="Слой_x0020_1">
  <metadata id="CorelCorpID_0Corel-Layer"/>
  <path class="fil0" d="M13064.49 7139.27l0 -48.47 617.65 0 83.99 -145.42 -335.81 0c-70.13,0 -127.14,-56.87 -127.14,-126.96l0 -399.49c0,-70.24 56.94,-127.07 127.14,-127.07l631.48 0 0 798.94 203.83 0 0 -399.49 445 0 0 399.56 203.76 0 0 -944.53 -203.76 0 0 399.52 -445 0 0 -399.59 -1012.68 0.07c-84.74,0 -153.43,68.51 -153.43,153.25l0 645.79 -35.03 0 0 -718.33c29.14,-75.56 102.45,-129.22 188.46,-129.22l1061.19 -0.07 0 399.59 348.01 0 0 -399.52 300.75 0 0 1041.47 -300.75 0 0 -399.52 -348.01 0 0 399.49 -300.82 0 0 -798.9 -583 0c-43.35,0 -78.63,35.03 -78.63,78.56l0 399.49c0,43.35 35.28,78.49 78.63,78.49l419.84 0 -140.01 242.36 -645.66 0 0 0zm870.31 -1441.03l-140.09 242.43 -384.92 0c-111.48,0 -201.82,-90.35 -201.82,-201.89l0 -839.69 300.85 0 0 720.59c0,43.39 35.17,78.56 78.6,78.56l347.38 0 0 0zm805.28 -0.07l-140.02 242.43 -384.88 0c-111.44,0 -201.86,-90.28 -201.86,-201.82l0 -839.76 300.78 0 0 720.55c0,43.5 35.17,78.6 78.53,78.6l347.45 0zm-9060.84 975.85c-71.06,-205.17 -109.8,-425.45 -109.8,-654.79 0,-975.14 698.18,-1787.31 1621.83,-1964.12l-1512.03 2618.91 0 0zm7385.25 -446.97l0 718.33 -590.34 0c-70.06,0 -126.96,-56.87 -126.96,-126.89l0 -127.18 498.23 0 0 -145.45 -498.23 0 0 -254 498.23 0 0 -145.59 -1546.76 0 -84.1 145.55 342.06 0 0 798.98 203.72 0 0 -798.98 382.87 0 0 645.66c0,83.96 67.38,152.29 151.06,153.32l770.22 0 0 48.47 -770.39 0c-110.28,-1.31 -199.36,-91.09 -199.36,-201.79l0 -597.18 -285.89 0 0 798.97 -300.71 0 0 -798.97 -377.54 0 140.09 -242.54 1623.2 0 0 242.61 -498.23 0 0 156.98 498.23 0 0 242.43 -498.23 0 0 78.71 0 -0.07c0,43.32 35.1,78.49 78.49,78.49l576.87 0 0 -597.32c0,-25.58 4.8,-49.99 13.47,-72.54l0 0zm-5839.99 -2177.97c112.08,-19.51 227.3,-29.81 344.95,-29.81 865.86,0 1603.06,550.43 1881.29,1320.37 0.29,1.34 0.46,2.79 0.46,4.24 0.11,11.07 -8.46,19.82 -19.19,20.6l-1862.6 0c-208.45,0 -377.54,-168.77 -377.96,-377.47l0.03 -897.89c1.2,-18.98 15,-36.34 33.02,-40.04l0 0zm689.86 3940.35c18.06,-3.71 31.86,-21.1 33.02,-40.04l0.07 -897.93c-0.42,-208.7 -169.51,-377.44 -378,-377.44l-1862.58 0c-10.71,0.78 -19.26,9.53 -19.21,20.61 0.03,1.44 0.19,2.89 0.48,4.27 278.24,769.9 1015.45,1320.34 1881.31,1320.34 117.65,0 232.87,-10.3 344.91,-29.81l0 0zm1545.27 -2624.95l-1512 2618.91c923.64,-176.81 1621.82,-988.97 1621.82,-1964.16 0,-229.34 -38.73,-449.58 -109.82,-654.75l0 0zm673.91 374.3l0 -839.76 799.19 0 0 242.47 -498.34 0 0 157.16 498.34 0 0 242.39 -498.34 0 0 78.64 0 -0.11c0,43.5 35.21,78.6 78.57,78.6l632 0 160.62 -278.31 -300.6 -520.77 356.41 0 230.89 399.84 230.82 -399.84 1028.46 0c110.24,1.24 199.32,91.13 199.32,201.83l0 839.75 -799.15 0 0 -242.5 498.37 0 0 -157.13 -498.37 0 0 -242.39 498.37 0 0 -78.6 0 0.07c0,-43.46 -35.17,-78.63 -78.57,-78.63l-631.93 0 -160.62 278.37 300.53 520.74 -356.41 0 -230.82 -399.8 -230.89 399.8 -1028.63 0c-110.17,-1.34 -199.22,-91.19 -199.22,-201.82z"/>
 </g>
</svg>
