<svg width="11947" height="5042" xmlns="http://www.w3.org/2000/svg">
 <defs>
  <style type="text/css">
   <![CDATA[
    .fil0 {fill:#00A1DE}
   ]]>
  </style>
 </defs>
 <g>
  <title>background</title>
  <rect fill="none" id="canvas_background" height="5044" width="11949" y="-1" x="-1"/>
 </g>
 <g>
  <title>Layer 1</title>
  <g id="Слой_x0020_1">
   <metadata transform="translate(-4641.05126953125,-3540.802001953125) " id="CorelCorpID_0Corel-Layer"/>
   <path id="svg_1" d="m8423.43873,3598.467998l0,-48.47l617.65,0l83.99,-145.42l-335.81,0c-70.13,0 -127.14,-56.87 -127.14,-126.96l0,-399.49c0,-70.24 56.94,-127.07 127.14,-127.07l631.48,0l0,798.94l203.83,0l0,-399.49l445,0l0,399.56l203.76,0l0,-944.53l-203.76,0l0,399.52l-445,0l0,-399.59l-1012.68,0.07c-84.74,0 -153.43,68.51 -153.43,153.25l0,645.79l-35.03,0l0,-718.33c29.14,-75.56 102.45,-129.22 188.46,-129.22l1061.19,-0.07l0,399.59l348.01,0l0,-399.52l300.75,0l0,1041.47l-300.75,0l0,-399.52l-348.01,0l0,399.49l-300.82,0l0,-798.9l-583,0c-43.35,0 -78.63,35.03 -78.63,78.56l0,399.49c0,43.35 35.28,78.49 78.63,78.49l419.84,0l-140.01,242.36l-645.66,0l0,0zm870.31,-1441.03l-140.09,242.43l-384.92,0c-111.48,0 -201.82,-90.35 -201.82,-201.89l0,-839.69l300.85,0l0,720.59c0,43.39 35.17,78.56 78.6,78.56l347.38,0l0,0zm805.28,-0.07l-140.02,242.43l-384.88,0c-111.44,0 -201.86,-90.28 -201.86,-201.82l0,-839.76l300.78,0l0,720.55c0,43.5 35.17,78.6 78.53,78.6l347.45,0zm-9060.84,975.85c-71.06,-205.17 -109.8,-425.45 -109.8,-654.79c0,-975.14 698.18,-1787.31 1621.83,-1964.12l-1512.03,2618.91l0,0zm7385.25,-446.97l0,718.33l-590.34,0c-70.06,0 -126.96,-56.87 -126.96,-126.89l0,-127.18l498.23,0l0,-145.45l-498.23,0l0,-254l498.23,0l0,-145.59l-1546.76,0l-84.1,145.55l342.06,0l0,798.98l203.72,0l0,-798.98l382.87,0l0,645.66c0,83.96 67.38,152.29 151.06,153.32l770.22,0l0,48.47l-770.39,0c-110.28,-1.31 -199.36,-91.09 -199.36,-201.79l0,-597.18l-285.89,0l0,798.97l-300.71,0l0,-798.97l-377.54,0l140.09,-242.54l1623.2,0l0,242.61l-498.23,0l0,156.98l498.23,0l0,242.43l-498.23,0l0,78.71l0,-0.07c0,43.32 35.1,78.49 78.49,78.49l576.87,0l0,-597.32c0,-25.58 4.8,-49.99 13.47,-72.54l0,0zm-5839.99,-2177.97c112.08,-19.51 227.3,-29.81 344.95,-29.81c865.86,0 1603.06,550.43 1881.29,1320.37c0.29,1.34 0.46,2.79 0.46,4.24c0.11,11.07 -8.46,19.82 -19.19,20.6l-1862.6,0c-208.45,0 -377.54,-168.77 -377.96,-377.47l0.03,-897.89c1.2,-18.98 15,-36.34 33.02,-40.04l0,0zm689.86,3940.35c18.06,-3.71 31.86,-21.1 33.02,-40.04l0.07,-897.93c-0.42,-208.7 -169.51,-377.44 -378,-377.44l-1862.58,0c-10.71,0.78 -19.26,9.53 -19.21,20.61c0.03,1.44 0.19,2.89 0.48,4.27c278.24,769.9 1015.45,1320.34 1881.31,1320.34c117.65,0 232.87,-10.3 344.91,-29.81l0,0zm1545.27,-2624.95l-1512,2618.91c923.64,-176.81 1621.82,-988.97 1621.82,-1964.16c0,-229.34 -38.73,-449.58 -109.82,-654.75l0,0zm673.91,374.3l0,-839.76l799.19,0l0,242.47l-498.34,0l0,157.16l498.34,0l0,242.39l-498.34,0l0,78.64l0,-0.11c0,43.5 35.21,78.6 78.57,78.6l632,0l160.62,-278.31l-300.6,-520.77l356.41,0l230.89,399.84l230.82,-399.84l1028.46,0c110.24,1.24 199.32,91.13 199.32,201.83l0,839.75l-799.15,0l0,-242.5l498.37,0l0,-157.13l-498.37,0l0,-242.39l498.37,0l0,-78.6l0,0.07c0,-43.46 -35.17,-78.63 -78.57,-78.63l-631.93,0l-160.62,278.37l300.53,520.74l-356.41,0l-230.82,-399.8l-230.89,399.8l-1028.63,0c-110.17,-1.34 -199.22,-91.19 -199.22,-201.82z" class="fil0"/>
  </g>
 </g>
</svg>